# xmcd CD database file
#
# Track frame offsets:
#	182
#	28842
#	84207
#	126345
#	149250
#	171395
#
# Disc length: 2627 seconds
#
# Revision: 0
# Processed by: cddbd v1.5PL3 Copyright (c) Steve Scherf et al.
# Submitted via: CDex 1.51
#
DISCID=4e0a4106
DTITLE=Taxi Kolor - Taxi Kolor
DYEAR=1994
DGENRE=Merengue
TTITLE0=Ziggy "Cé an makoumé"
TTITLE1=Taxi-kolor
TTITLE2=Vidé-kolor
TTITLE3=Vié l'auto
TTITLE4=Percussions en délire
TTITLE5=Aïe chofé (Techno-vidé)
EXTD=YEAR: 1994
EXTT0=
EXTT1=
EXTT2=
EXTT3=
EXTT4=
EXTT5=
PLAYORDER=
